<svg width="21" height="21" viewBox="0 0 21 21" fill="none" xmlns="http://www.w3.org/2000/svg">
<g clip-path="url(#clip0_1992_464)">
<path d="M18.6599 16.296C18.3575 16.9947 17.9995 17.6379 17.5847 18.2293C17.0192 19.0354 16.5563 19.5934 16.1995 19.9033C15.6464 20.4119 15.0539 20.6724 14.4193 20.6872C13.9638 20.6872 13.4144 20.5576 12.7749 20.2946C12.1333 20.0329 11.5437 19.9033 11.0046 19.9033C10.4392 19.9033 9.8328 20.0329 9.18418 20.2946C8.53457 20.5576 8.01125 20.6946 7.61114 20.7082C7.00264 20.7341 6.39612 20.4662 5.79071 19.9033C5.4043 19.5662 4.92098 18.9885 4.34199 18.17C3.72077 17.2959 3.21005 16.2824 2.80994 15.1269C2.38143 13.8788 2.16663 12.6702 2.16663 11.5001C2.16663 10.1597 2.45625 9.00373 3.03635 8.03499C3.49226 7.25687 4.09879 6.64306 4.8579 6.19245C5.61701 5.74185 6.43723 5.51223 7.32054 5.49754C7.80385 5.49754 8.43766 5.64704 9.22529 5.94086C10.0107 6.23566 10.515 6.38516 10.7361 6.38516C10.9014 6.38516 11.4616 6.21035 12.4114 5.86185C13.3095 5.53865 14.0675 5.40482 14.6884 5.45754C16.3711 5.59334 17.6353 6.25665 18.476 7.45167C16.9711 8.3635 16.2267 9.64062 16.2415 11.279C16.2551 12.5551 16.718 13.617 17.6279 14.4602C18.0402 14.8516 18.5007 15.154 19.013 15.3688C18.9019 15.6911 18.7846 15.9997 18.6599 16.296ZM14.8008 1.11001C14.8008 2.11024 14.4354 3.04415 13.707 3.90857C12.828 4.93619 11.7648 5.53 10.6119 5.4363C10.5972 5.31631 10.5887 5.19001 10.5887 5.0573C10.5887 4.09708 11.0067 3.06946 11.749 2.22924C12.1196 1.80382 12.591 1.45009 13.1626 1.16791C13.7329 0.889946 14.2724 0.736224 14.7798 0.7099C14.7946 0.843615 14.8008 0.977338 14.8008 1.11V1.11001Z" fill="black"/>
</g>
<defs>
<clipPath id="clip0_1992_464">
<rect width="20" height="20" fill="white" transform="translate(0.5 0.709686)"/>
</clipPath>
</defs>
</svg>
