<svg width="21" height="21" viewBox="0 0 21 21" fill="none" xmlns="http://www.w3.org/2000/svg">
<path d="M4.89012 13.9678C4.52445 14.466 4.32031 15.0214 4.32031 15.6069C4.32031 17.757 7.07235 19.4999 10.4672 19.4999C13.862 19.4999 16.614 17.757 16.614 15.6069C16.614 15.0214 16.4099 14.466 16.0442 13.9678" stroke="#657660" stroke-width="0.9" stroke-linecap="round"/>
<path d="M3.5 10.7427V5.50821C3.5 4.85657 3.85016 4.25519 4.41689 3.93354L9.5727 1.00726C10.127 0.692656 10.8059 0.692656 11.3602 1.00726L16.516 3.93354C17.0827 4.25519 17.4329 4.85657 17.4329 5.50821V10.7427C17.4329 11.3943 17.0827 11.9957 16.516 12.3173L11.3602 15.2436C10.8059 15.5582 10.127 15.5582 9.5727 15.2436L4.41689 12.3173C3.85017 11.9957 3.5 11.3943 3.5 10.7427Z" stroke="#657660" stroke-width="0.9" stroke-linecap="round" stroke-linejoin="round"/>
<path d="M10.1516 15.2367V8.09863" stroke="#657660" stroke-width="0.9" stroke-linecap="round" stroke-linejoin="round"/>
<path d="M17.314 4.52148L10.5 7.99976L3.61977 4.52148" stroke="#657660" stroke-width="0.9" stroke-linecap="round" stroke-linejoin="round"/>
<path d="M10.4666 0.851562V1.87604" stroke="#657660" stroke-width="0.9" stroke-linecap="round" stroke-linejoin="round"/>
<path d="M10.4666 3.31055V4.33502" stroke="#657660" stroke-width="0.9" stroke-linecap="round" stroke-linejoin="round"/>
<path d="M10.4666 5.76904V6.79352" stroke="#657660" stroke-width="0.9" stroke-linecap="round" stroke-linejoin="round"/>
<path d="M4.93311 10.9746L3.69572 11.6626" stroke="#657660" stroke-width="0.9" stroke-linecap="round" stroke-linejoin="round"/>
<path d="M6.16247 10.2769L7.39185 9.5791" stroke="#657660" stroke-width="0.9" stroke-linecap="round" stroke-linejoin="round"/>
<path d="M9.85034 8.16699L8.72342 8.82322" stroke="#657660" stroke-width="0.9" stroke-linecap="round" stroke-linejoin="round"/>
<path d="M10.9771 8.18652L12.104 8.84276" stroke="#657660" stroke-width="0.9" stroke-linecap="round" stroke-linejoin="round"/>
<path d="M14.665 10.2964L13.4357 9.59863" stroke="#657660" stroke-width="0.9" stroke-linecap="round" stroke-linejoin="round"/>
<path d="M15.8947 10.9941L17.2378 11.7409" stroke="#657660" stroke-width="0.9" stroke-linecap="round" stroke-linejoin="round"/>
</svg>
