<svg width="21" height="20" viewBox="0 0 21 20" fill="none" xmlns="http://www.w3.org/2000/svg">
<path d="M19.5 7.61876C19.6313 7.61879 19.7614 7.59418 19.8827 7.54633C20.0041 7.49848 20.1143 7.42832 20.2072 7.33988C20.3 7.25143 20.3737 7.14643 20.4239 7.03086C20.4742 6.9153 20.5 6.79144 20.5 6.66636V3.80915C20.5001 3.60931 20.4341 3.41452 20.3114 3.25241C20.1887 3.09031 20.0155 2.96912 19.8164 2.90604L10.8164 0.0488291C10.611 -0.0162764 10.389 -0.0162764 10.1836 0.0488291L1.18359 2.90604C0.984493 2.96912 0.811309 3.09031 0.688606 3.25241C0.565903 3.41452 0.499914 3.60931 0.5 3.80915V6.66636C0.499966 6.79144 0.525808 6.9153 0.576051 7.03086C0.626294 7.14643 0.699952 7.25143 0.792817 7.33988C0.885683 7.42832 0.995935 7.49848 1.11728 7.54633C1.23862 7.59418 1.36867 7.61879 1.5 7.61876H2.5V14.4611C1.91674 14.6568 1.41137 15.0196 1.05327 15.4997C0.695169 15.9799 0.501902 16.5538 0.5 17.1428V19.0476C0.499966 19.1727 0.525808 19.2965 0.576051 19.4121C0.626294 19.5277 0.699952 19.6327 0.792817 19.7211C0.885683 19.8096 0.995935 19.8797 1.11728 19.9276C1.23862 19.9754 1.36867 20 1.5 20H19.5C19.6313 20 19.7614 19.9754 19.8827 19.9276C20.0041 19.8797 20.1143 19.8096 20.2072 19.7211C20.3 19.6327 20.3737 19.5277 20.4239 19.4121C20.4742 19.2965 20.5 19.1727 20.5 19.0476V17.1428C20.4981 16.5538 20.3048 15.9799 19.9467 15.4997C19.5886 15.0196 19.0833 14.6568 18.5 14.4611V7.61876H19.5ZM18.5 18.0952H2.5V17.1428C2.50026 16.8903 2.60571 16.6482 2.79319 16.4696C2.98066 16.2911 3.23486 16.1906 3.5 16.1904H17.5C17.7651 16.1906 18.0193 16.2911 18.2068 16.4696C18.3943 16.6482 18.4997 16.8903 18.5 17.1428V18.0952ZM4.5 14.2856V7.61876H6.5V14.2856H4.5ZM8.5 14.2856V7.61876H12.5V14.2856H8.5ZM14.5 14.2856V7.61876H16.5V14.2856H14.5ZM2.5 5.71395V4.49554L10.5 1.95548L18.5 4.49554V5.71395H2.5Z" fill="#3A3E39"/>
</svg>
