<svg width="20" height="19" viewBox="0 0 20 19" fill="none" xmlns="http://www.w3.org/2000/svg">
<path d="M1 7.3541C1 6.33011 1.83011 5.5 2.8541 5.5V5.5C3.55638 5.5 4.19839 5.10322 4.51246 4.47508L5.33333 2.83333C5.44329 2.61342 5.49827 2.50346 5.56062 2.40782C5.8859 1.90882 6.41668 1.58078 7.00848 1.51299C7.1219 1.5 7.24484 1.5 7.49071 1.5H12.5093C12.7552 1.5 12.8781 1.5 12.9915 1.51299C13.5833 1.58078 14.1141 1.90882 14.4394 2.40782C14.5017 2.50346 14.5567 2.61342 14.6667 2.83333L15.4875 4.47508C15.8016 5.10322 16.4436 5.5 17.1459 5.5V5.5C18.1699 5.5 19 6.33011 19 7.3541V12.3571C19 14.3619 19 15.3643 18.5402 16.0961C18.3004 16.4777 17.9777 16.8004 17.5961 17.0402C16.8643 17.5 15.8619 17.5 13.8571 17.5H6.14286C4.1381 17.5 3.13571 17.5 2.4039 17.0402C2.02229 16.8004 1.69961 16.4777 1.45983 16.0961C1 15.3643 1 14.3619 1 12.3571V7.3541Z" stroke="#515E4D" stroke-width="2"/>
<circle cx="10" cy="10.5" r="3" stroke="#515E4D" stroke-width="2"/>
</svg>
