<svg width="25" height="24" viewBox="0 0 25 24" fill="none" xmlns="http://www.w3.org/2000/svg">
<path d="M16.5004 9V6C16.5004 3.79086 14.7095 2 12.5004 2C10.2912 2 8.50037 3.79086 8.50037 6V9M4.09237 10.352L3.49237 16.752C3.32178 18.5717 3.23648 19.4815 3.53842 20.1843C3.80367 20.8016 4.26849 21.3121 4.85839 21.6338C5.5299 22 6.44374 22 8.27142 22H16.7293C18.557 22 19.4708 22 20.1423 21.6338C20.7322 21.3121 21.1971 20.8016 21.4623 20.1843C21.7643 19.4815 21.679 18.5717 21.5084 16.752L20.9084 10.352C20.7643 8.81535 20.6923 8.04704 20.3467 7.46616C20.0424 6.95458 19.5927 6.54511 19.055 6.28984C18.4444 6 17.6727 6 16.1293 6L8.87142 6C7.32806 6 6.55638 6 5.94579 6.28984C5.40803 6.54511 4.95838 6.95458 4.65403 7.46616C4.30846 8.04704 4.23643 8.81534 4.09237 10.352Z" stroke="#53634F" stroke-width="1.5" stroke-linecap="round" stroke-linejoin="round"/>
</svg>
