<svg width="25" height="24" viewBox="0 0 25 24" fill="none" xmlns="http://www.w3.org/2000/svg">
<path fill-rule="evenodd" clip-rule="evenodd" d="M16.7855 2H20.0521C21.4036 2 22.5 3.1059 22.5 4.47018V7.7641C22.5 9.12735 21.4036 10.2343 20.0521 10.2343H16.7855C15.433 10.2343 14.3366 9.12735 14.3366 7.7641V4.47018C14.3366 3.1059 15.433 2 16.7855 2ZM4.94892 2H8.21449C9.56703 2 10.6634 3.1059 10.6634 4.47018V7.7641C10.6634 9.12735 9.56703 10.2343 8.21449 10.2343H4.94892C3.59638 10.2343 2.5 9.12735 2.5 7.7641V4.47018C2.5 3.1059 3.59638 2 4.94892 2ZM4.94892 13.7657H8.21449C9.56703 13.7657 10.6634 14.8716 10.6634 16.2369V19.5298C10.6634 20.8941 9.56703 22 8.21449 22H4.94892C3.59638 22 2.5 20.8941 2.5 19.5298V16.2369C2.5 14.8716 3.59638 13.7657 4.94892 13.7657ZM16.7855 13.7657H20.0521C21.4036 13.7657 22.5 14.8716 22.5 16.2369V19.5298C22.5 20.8941 21.4036 22 20.0521 22H16.7855C15.433 22 14.3366 20.8941 14.3366 19.5298V16.2369C14.3366 14.8716 15.433 13.7657 16.7855 13.7657Z" stroke="#53634F" stroke-width="1.5" stroke-linecap="round" stroke-linejoin="round"/>
</svg>
