<svg width="21" height="22" viewBox="0 0 21 22" fill="none" xmlns="http://www.w3.org/2000/svg">
<path d="M3.59371 20.75V15.875M3.59371 6.125V1.25M1.29163 3.6875H5.89579M1.29163 18.3125H5.89579M11.4208 2.225L9.82388 6.62114C9.56421 7.33604 9.43437 7.69349 9.23243 7.99416C9.05351 8.26064 8.83362 8.49346 8.58195 8.68294C8.29798 8.89673 7.96038 9.03422 7.2852 9.30916L3.13329 11L7.2852 12.6908C7.96038 12.9658 8.29798 13.1033 8.58195 13.3171C8.83362 13.5065 9.05351 13.7394 9.23243 14.0058C9.43437 14.3065 9.56421 14.664 9.82388 15.3788L11.4208 19.775L13.0177 15.3788C13.2774 14.664 13.4072 14.3065 13.6092 14.0058C13.7881 13.7394 14.008 13.5065 14.2596 13.3171C14.5436 13.1033 14.8812 12.9658 15.5563 12.6908L19.7083 11L15.5563 9.30916C14.8812 9.03422 14.5436 8.89673 14.2596 8.68294C14.008 8.49346 13.7881 8.26064 13.6092 7.99416C13.4072 7.69349 13.2774 7.33604 13.0177 6.62114L11.4208 2.225Z" stroke="#4C5948" stroke-width="1.5" stroke-linecap="round" stroke-linejoin="round"/>
</svg>
