<svg width="21" height="21" viewBox="0 0 21 21" fill="none" xmlns="http://www.w3.org/2000/svg">
<g clip-path="url(#clip0_1992_2668)">
<path d="M20.305 10.94C20.305 10.2603 20.2499 9.57681 20.1323 8.90807H10.7V12.7589H16.1014C15.8773 14.0008 15.1571 15.0995 14.1025 15.7976V18.2963H17.325C19.2173 16.5546 20.305 13.9825 20.305 10.94Z" fill="#4285F4"/>
<path d="M10.7 20.7104C13.3971 20.7104 15.6716 19.8248 17.3287 18.2963L14.1063 15.7976C13.2097 16.4076 12.0522 16.753 10.7037 16.753C8.09486 16.753 5.88285 14.9929 5.08917 12.6266H1.76379V15.2024C3.46139 18.5792 6.91904 20.7104 10.7 20.7104Z" fill="#34A853"/>
<path d="M5.0854 12.6266C4.66651 11.3846 4.66651 10.0398 5.0854 8.79783V6.22205H1.7637C0.345367 9.04769 0.345367 12.3767 1.7637 15.2024L5.0854 12.6266Z" fill="#FBBC04"/>
<path d="M10.7 4.66774C12.1257 4.64569 13.5036 5.18216 14.5362 6.16691L17.3912 3.31187C15.5834 1.61427 13.184 0.680965 10.7 0.71036C6.91904 0.71036 3.46139 2.84154 1.76379 6.22203L5.08549 8.79781C5.8755 6.42779 8.09119 4.66774 10.7 4.66774Z" fill="#EA4335"/>
</g>
<defs>
<clipPath id="clip0_1992_2668">
<rect width="20" height="20" fill="white" transform="translate(0.5 0.709686)"/>
</clipPath>
</defs>
</svg>
