<svg width="16" height="17" viewBox="0 0 16 17" fill="none" xmlns="http://www.w3.org/2000/svg">
<path d="M13.8333 6.72727C13.8333 11.1818 7.99996 15 7.99996 15C7.99996 15 2.16663 11.1818 2.16663 6.72727C2.16663 5.20831 2.78121 3.75155 3.87517 2.67748C4.96913 1.60341 6.45286 1 7.99996 1C9.54705 1 11.0308 1.60341 12.1247 2.67748C13.2187 3.75155 13.8333 5.20831 13.8333 6.72727Z" stroke="#53634F" stroke-width="1.5" stroke-linecap="round" stroke-linejoin="round"/>
<path d="M7.99996 8.63636C9.07385 8.63636 9.9444 7.78163 9.9444 6.72727C9.9444 5.67291 9.07385 4.81818 7.99996 4.81818C6.92607 4.81818 6.05551 5.67291 6.05551 6.72727C6.05551 7.78163 6.92607 8.63636 7.99996 8.63636Z" stroke="#53634F" stroke-width="1.5" stroke-linecap="round" stroke-linejoin="round"/>
</svg>
