<svg width="24" height="20" viewBox="0 0 24 20" fill="none" xmlns="http://www.w3.org/2000/svg">
<path fill-rule="evenodd" clip-rule="evenodd" d="M12.0001 1C8.24191 1 5.17326 3.9698 5.17326 7.59968V10.0012C5.17326 11.847 4.42473 13.4073 4.12222 13.9917C3.5147 15.1679 4.43281 16.5961 5.79196 16.5961H8.95875C9.24698 17.9631 10.5055 19 12.0026 19C13.4996 19 14.7581 17.9631 15.0464 16.5961H18.2131C19.5723 16.5961 20.4842 15.1655 19.8779 13.9917C19.5773 13.4097 18.8331 11.8476 18.8331 10.0012V7.59968C18.8331 3.9692 15.7582 1 12.0001 1ZM12.0001 2.19536C15.0811 2.19536 17.5945 4.62268 17.5945 7.59968V10.0012C17.5945 12.1555 18.4405 13.8969 18.7685 14.5318C18.9859 14.9531 18.6995 15.4007 18.2131 15.4007H5.79196C5.30184 15.4007 5.01424 14.9549 5.23289 14.5324C5.56026 13.8981 6.41066 12.1561 6.41066 10.0012V7.59968C6.41066 4.62208 8.91838 2.19536 12.0001 2.19536ZM12.0001 3.39552C9.6023 3.39552 7.65302 5.28277 7.65302 7.59968C7.65302 7.75883 7.71847 7.91146 7.83497 8.024C7.95146 8.13654 8.10946 8.19976 8.27421 8.19976C8.43896 8.19976 8.59696 8.13654 8.71345 8.024C8.82995 7.91146 8.89539 7.75883 8.89539 7.59968C8.89251 7.20487 8.97081 6.81344 9.12577 6.4481C9.28073 6.08276 9.50925 5.75079 9.79807 5.47144C10.0869 5.1921 10.4303 4.97094 10.8083 4.82081C11.1863 4.67068 11.5914 4.59457 12.0001 4.59688C12.165 4.59688 12.3231 4.53359 12.4398 4.42094C12.5564 4.3083 12.6219 4.15551 12.6219 3.9962C12.6219 3.83689 12.5564 3.6841 12.4398 3.57145C12.3231 3.45881 12.165 3.39552 12.0001 3.39552ZM8.27545 9.39872C8.1107 9.39872 7.9527 9.46194 7.83621 9.57448C7.71971 9.68702 7.65427 9.83965 7.65427 9.9988C7.65427 10.158 7.71971 10.3106 7.83621 10.4231C7.9527 10.5357 8.1107 10.5989 8.27545 10.5989C8.4402 10.5989 8.5982 10.5357 8.71469 10.4231C8.83119 10.3106 8.89663 10.158 8.89663 9.9988C8.89663 9.83965 8.83119 9.68702 8.71469 9.57448C8.5982 9.46194 8.4402 9.39872 8.27545 9.39872ZM10.2508 16.5961H13.7543C13.6288 16.9482 13.3925 17.2536 13.0783 17.4694C12.7642 17.6853 12.388 17.8008 12.0026 17.7998C11.6171 17.8008 11.2409 17.6853 10.9268 17.4694C10.6126 17.2536 10.3763 16.9482 10.2508 16.5961Z" fill="#53634F"/>
</svg>
