<svg width="16" height="16" viewBox="0 0 16 16" fill="none" xmlns="http://www.w3.org/2000/svg">
<path d="M0.729492 10.5137L0.783203 10.5488C0.798919 10.5644 0.810913 10.5835 0.819336 10.6035L0.833008 10.667V13.9961C0.83166 14.112 0.848019 14.2272 0.880859 14.3379L0.918945 14.4463C0.962663 14.5533 1.0217 14.6531 1.09473 14.7422L1.17285 14.8281C1.28215 14.937 1.41265 15.0223 1.55566 15.0801C1.69628 15.1369 1.84645 15.1644 1.99805 15.1631V15.165H5.33203L5.39648 15.1777L5.45117 15.2139L5.4873 15.2686L5.49902 15.333C5.49893 15.355 5.49462 15.3765 5.48633 15.3965L5.4502 15.4512C5.41891 15.4824 5.37621 15.4998 5.33203 15.5H1.99805C1.17818 15.5 0.500035 14.8218 0.5 14.002V10.667C0.500343 10.6231 0.517833 10.5809 0.548828 10.5498C0.579649 10.5189 0.621404 10.5017 0.665039 10.501C0.687342 10.501 0.709284 10.5053 0.729492 10.5137ZM15.3301 10.501C15.3531 10.5011 15.376 10.5053 15.3965 10.5137L15.4502 10.5498C15.4659 10.5654 15.4789 10.5835 15.4873 10.6035L15.5 10.667V14.002C15.4982 14.3491 15.3765 14.6832 15.1582 14.9492L15.0586 15.0586C14.7776 15.3396 14.3974 15.4985 14 15.5H10.667C10.645 15.4998 10.6234 15.4956 10.6035 15.4873L10.5498 15.4502C10.5343 15.4346 10.522 15.4165 10.5137 15.3965L10.501 15.333C10.5009 15.3108 10.5044 15.2887 10.5127 15.2686L10.5488 15.2139C10.5645 15.1981 10.5834 15.1862 10.6035 15.1777L10.667 15.165H13.999V15.1631C14.1126 15.1639 14.2254 15.1492 14.334 15.1172L14.4424 15.0791C14.585 15.021 14.7154 14.935 14.8242 14.8262C14.9329 14.7174 15.0191 14.5878 15.0771 14.4453C15.1206 14.3385 15.1471 14.2258 15.1572 14.1113L15.1621 13.9961V10.667C15.1623 10.645 15.1665 10.6234 15.1748 10.6035L15.2119 10.5488C15.2278 10.5332 15.2464 10.5209 15.2666 10.5127L15.3301 10.501ZM15.333 7.83203L15.3975 7.8457L15.4512 7.88184L15.4873 7.93652C15.4954 7.95639 15.4999 7.97756 15.5 7.99902C15.4998 8.02099 15.4956 8.04262 15.4873 8.0625L15.4502 8.11621C15.419 8.14723 15.377 8.16485 15.333 8.16504H0.666992C0.644984 8.16495 0.623466 8.16061 0.603516 8.15234L0.549805 8.11621C0.534154 8.10062 0.52108 8.08249 0.512695 8.0625L0.5 7.99902L0.512695 7.93652L0.548828 7.88184L0.602539 7.8457L0.666992 7.83203H15.333ZM14 0.5L14.1484 0.507812C14.4423 0.538038 14.7208 0.654393 14.9492 0.841797L15.0586 0.941406C15.3044 1.18718 15.4569 1.50879 15.4922 1.85156L15.5 2V5.33398C15.4994 5.37755 15.482 5.41931 15.4512 5.4502C15.4199 5.48147 15.3772 5.49883 15.333 5.49902L15.2686 5.4873L15.2139 5.45117L15.1777 5.39648L15.165 5.33203V1.99805H15.1641C15.165 1.88485 15.1498 1.77235 15.1182 1.66406L15.0801 1.55566C15.0367 1.44844 14.978 1.34814 14.9053 1.25879L14.8281 1.17285C14.7192 1.06353 14.5891 0.977307 14.4463 0.918945C14.3052 0.861326 14.1543 0.832009 14.002 0.833008H10.667C10.6449 0.83283 10.6235 0.82774 10.6035 0.819336L10.5488 0.783203C10.5183 0.752241 10.5014 0.710462 10.501 0.666992C10.5011 0.644958 10.5054 0.623483 10.5137 0.603516L10.5498 0.548828C10.5654 0.533322 10.5836 0.521009 10.6035 0.512695L10.668 0.5H14ZM5.33203 0.5L5.39648 0.512695L5.4502 0.548828C5.46589 0.564524 5.47798 0.5834 5.48633 0.603516L5.49902 0.666992C5.49879 0.688679 5.4945 0.709824 5.48633 0.729492L5.4502 0.783203C5.41888 0.814638 5.3764 0.83284 5.33203 0.833008H1.99805C1.88457 0.832016 1.77162 0.847114 1.66309 0.878906L1.55371 0.916992C1.4462 0.960586 1.34632 1.02059 1.25684 1.09375L1.1709 1.1709C1.08882 1.25298 1.01974 1.34692 0.96582 1.44922L0.916992 1.55371C0.873367 1.66139 0.846666 1.7753 0.836914 1.89062L0.833008 1.99805V5.33398C0.832401 5.37774 0.814237 5.41928 0.783203 5.4502C0.751966 5.48129 0.710069 5.49783 0.666016 5.49805C0.644326 5.49783 0.623184 5.49449 0.603516 5.48633L0.548828 5.4502C0.533323 5.43464 0.521009 5.41637 0.512695 5.39648L0.5 5.33203V2C0.501308 1.65221 0.623083 1.31735 0.841797 1.05078L0.941406 0.941406C1.18718 0.695634 1.50879 0.543065 1.85156 0.507812L2 0.5H5.33203Z" stroke="#53634F"/>
<path d="M4.16602 11.8335H11.834V4.16553H4.16602V11.8335ZM3.83105 3.99854L3.84375 3.93408L3.87988 3.87939L3.93457 3.84326L3.99902 3.83057H11.999L12.0635 3.84326L12.1172 3.88037L12.1543 3.93408L12.166 3.99854V11.9985C12.1659 12.0429 12.1486 12.0853 12.1172 12.1167C12.0858 12.1481 12.0434 12.1655 11.999 12.1655H3.99902C3.97708 12.1656 3.95487 12.1622 3.93457 12.1538C3.91426 12.1454 3.89643 12.1322 3.88086 12.1167L3.84375 12.063C3.83531 12.0427 3.83109 12.0205 3.83105 11.9985V3.99854Z" stroke="#53634F"/>
</svg>
