<svg width="20" height="20" viewBox="0 0 20 20" fill="none" xmlns="http://www.w3.org/2000/svg">
<path fill-rule="evenodd" clip-rule="evenodd" d="M5.21429 6.78571C5.21429 6.78571 6.54569 6.78571 7.48713 7.72716C7.48713 7.72716 8.42857 8.6686 8.42857 10C8.42857 10 8.42857 11.3314 7.48713 12.2728C7.48713 12.2728 6.54569 13.2143 5.21429 13.2143C5.21429 13.2143 3.88289 13.2143 2.94144 12.2728C2.94144 12.2728 2 11.3314 2 10C2 10 2 8.6686 2.94144 7.72716C2.94144 7.72716 3.88288 6.78571 5.21429 6.78571ZM5.21429 8.07143C5.21429 8.07143 4.41545 8.07143 3.85058 8.63629C3.85058 8.63629 3.28571 9.20116 3.28571 10C3.28571 10 3.28571 10.7988 3.85058 11.3637C3.85058 11.3637 4.41545 11.9286 5.21429 11.9286C5.21429 11.9286 6.01313 11.9286 6.57799 11.3637C6.57799 11.3637 7.14286 10.7988 7.14286 10C7.14286 10 7.14286 9.20116 6.57799 8.63629C6.57799 8.63629 6.01313 8.07143 5.21429 8.07143Z" fill="#515E4D"/>
<path fill-rule="evenodd" clip-rule="evenodd" d="M14.2143 12.5714C14.2143 12.5714 15.5457 12.5714 16.4871 13.5129C16.4871 13.5129 17.4286 14.4543 17.4286 15.7857C17.4286 15.7857 17.4286 17.1171 16.4871 18.0586C16.4871 18.0586 15.5457 19 14.2143 19C14.2143 19 12.8829 19 11.9414 18.0586C11.9414 18.0586 11 17.1171 11 15.7857C11 15.7857 11 14.4543 11.9414 13.5129C11.9414 13.5129 12.8829 12.5714 14.2143 12.5714ZM14.2143 13.8571C14.2143 13.8571 13.4154 13.8571 12.8506 14.422C12.8506 14.422 12.2857 14.9869 12.2857 15.7857C12.2857 15.7857 12.2857 16.5846 12.8506 17.1494C12.8506 17.1494 13.4154 17.7143 14.2143 17.7143C14.2143 17.7143 15.0131 17.7143 15.578 17.1494C15.578 17.1494 16.1429 16.5846 16.1429 15.7857C16.1429 15.7857 16.1429 14.9869 15.578 14.422C15.578 14.422 15.0131 13.8571 14.2143 13.8571Z" fill="#515E4D"/>
<path fill-rule="evenodd" clip-rule="evenodd" d="M14.2143 1C14.2143 1 15.5457 1 16.4871 1.94144C16.4871 1.94144 17.4286 2.88289 17.4286 4.21429C17.4286 4.21429 17.4286 5.54569 16.4871 6.48713C16.4871 6.48713 15.5457 7.42857 14.2143 7.42857C14.2143 7.42857 12.8829 7.42857 11.9414 6.48713C11.9414 6.48713 11 5.54569 11 4.21429C11 4.21429 11 2.88288 11.9414 1.94144C11.9414 1.94144 12.8829 1 14.2143 1ZM14.2143 2.28571C14.2143 2.28571 13.4154 2.28571 12.8506 2.85058C12.8506 2.85058 12.2857 3.41545 12.2857 4.21429C12.2857 4.21429 12.2857 5.01313 12.8506 5.57799C12.8506 5.57799 13.4154 6.14286 14.2143 6.14286C14.2143 6.14286 15.0131 6.14286 15.578 5.57799C15.578 5.57799 16.1429 5.01313 16.1429 4.21429C16.1429 4.21429 16.1429 3.41545 15.578 2.85058C15.578 2.85058 15.0131 2.28571 14.2143 2.28571Z" fill="#515E4D"/>
<path d="M12.4002 6.14534L12.4044 6.1426C12.5861 6.02386 12.6955 5.82151 12.6955 5.60453C12.6955 5.4813 12.6601 5.36066 12.5935 5.25699L12.5907 5.25275C12.4984 5.11151 12.3542 5.01224 12.1893 4.97637L12.1846 4.97535C12.1412 4.96625 12.097 4.96167 12.0527 4.96167C11.9294 4.96167 11.8088 4.99709 11.7051 5.06371L7.02856 8.06893C6.88512 8.1611 6.78397 8.30661 6.74772 8.47321C6.73795 8.51811 6.73303 8.56393 6.73303 8.60988L6.73331 8.62888C6.73676 8.7456 6.77194 8.85918 6.83507 8.95742C6.95334 9.14147 7.1571 9.25274 7.37589 9.25274C7.38515 9.25274 7.39441 9.25254 7.40366 9.25214C7.51735 9.24722 7.62769 9.21222 7.72342 9.1507L12.4002 6.14534Z" fill="#515E4D"/>
<path d="M11.7048 14.9362C11.8085 15.0029 11.9294 15.0385 12.0527 15.0385L12.0577 15.0384C12.2747 15.0367 12.4762 14.9257 12.5935 14.7431C12.6601 14.6395 12.6955 14.5188 12.6955 14.3956L12.6955 14.3905C12.6938 14.1736 12.5828 13.9721 12.4002 13.8548L7.72342 10.8494C7.61975 10.7828 7.49912 10.7474 7.37589 10.7474L7.37083 10.7474C7.15385 10.7491 6.95237 10.8602 6.83507 11.0427C6.76845 11.1464 6.73303 11.267 6.73303 11.3902L6.73305 11.3953C6.73475 11.6123 6.8458 11.8138 7.02835 11.9311L11.7048 14.9362Z" fill="#515E4D"/>
</svg>
