<svg width="24" height="24" viewBox="0 0 24 24" fill="none" xmlns="http://www.w3.org/2000/svg">
<path d="M23.9815 9.6103C24.1014 8.98143 23.6218 8.22679 23.0222 8.22679L16.1875 7.2206L13.0699 0.680377C12.95 0.42883 12.8301 0.303056 12.5903 0.177283C11.9908 -0.200038 11.2713 0.0515094 10.9116 0.680377L7.9139 7.2206L1.07917 8.22679C0.719445 8.22679 0.47963 8.35257 0.359723 8.60411C-0.119908 9.10721 -0.119908 9.86185 0.359723 10.3649L5.27593 15.3959L4.07686 22.565C4.07686 22.8165 4.07686 23.0681 4.19676 23.3196C4.55649 23.9485 5.27593 24.2 5.87547 23.8227L11.9908 20.4268L18.106 23.8227C18.2259 23.9485 18.4658 23.9485 18.7056 23.9485C18.8255 23.9485 18.8255 23.9485 18.9454 23.9485C19.5449 23.8227 20.0246 23.1938 19.9046 22.4392L18.7056 15.2701L23.6218 10.2392C23.8616 10.1134 23.9815 9.86185 23.9815 9.6103Z" fill="#EEB417"/>
</svg>
