<svg width="24" height="24" viewBox="0 0 24 24" fill="none" xmlns="http://www.w3.org/2000/svg">
<path d="M11.9999 18.7095L18.3454 22.1912L17.1335 14.8168L22.2671 9.5942L15.1726 8.51828L11.9999 1.8088L8.82715 8.51828L1.73271 9.5942L6.8663 14.8168L5.65442 22.1912L11.9999 18.7095ZM6.46072 23.7919C5.6137 24.2567 4.56605 23.9168 4.12075 23.0328C3.94342 22.6807 3.88224 22.2775 3.94665 21.8855L5.00454 15.4481L0.523258 10.8892C-0.161999 10.192 -0.17602 9.04711 0.49194 8.33192C0.757925 8.04712 1.10645 7.86179 1.48355 7.8046L7.67652 6.8654L10.4461 1.00847C10.8696 0.112851 11.9086 -0.254867 12.7667 0.187145C13.1084 0.363157 13.385 0.651827 13.5537 1.00847L16.3232 6.8654L22.5162 7.8046C23.4632 7.94822 24.1194 8.86587 23.9818 9.85424C23.927 10.2478 23.7494 10.6116 23.4765 10.8892L18.9952 15.4481L20.0531 21.8855C20.2149 22.8699 19.5814 23.8048 18.6383 23.9736C18.2627 24.0408 17.8763 23.977 17.5391 23.7919L11.9999 20.7526L6.46072 23.7919Z" fill="#BCBCBC"/>
</svg>
